#!OML:ASF X:\für Bonn\!DataBase\2005_08_12_Daniel\c3d\Daniel.ASF
:FULLY-SPECIFIED
:DEGREES
3383
root -5.22075 16.9614 -4.48836 322.144 -75.1835 -334.04
lowerback 13.8377 -1.88912 -3.65047
upperback 9.51264 -3.38348 -2.2958
thorax 2.35413 -2.02062 0.0245614
lowerneck 4.04555 16.0045 -0.603999
upperneck -6.61639 20.735 -10.2868
head -1.70292 10.6544 -3.60377
rclavicle -2.48481e-015 -1.91827e-014
rhumerus -78.9665 23.2174 -107.913
rradius 62.4036
rwrist -15.9818
rhand 33.3128 24.7627
rfingers 7.12502
rthumb 56.6581 7.89542
lclavicle -2.48481e-015 -1.91827e-014
lhumerus -75.3891 -23.3249 103.298
lradius 69.3491
lwrist 24.3462
lhand 35.496 -2.68866
lfingers 7.12502
lthumb 58.5685 12.5115
rfemur 10.964 22.4627 27.9035
rtibia 31.6513
rfoot -50.9176 -30.2724
rtoes -5.89912
lfemur -11.0107 -3.50894 -14.9065
ltibia 48.0174
lfoot -4.78207 -7.99572
ltoes 0.480544
3384
root -5.17903 16.9388 -4.49761 322.591 -75.0134 -334.557
lowerback 14.0938 -1.8929 -3.43939
upperback 9.56928 -3.38277 -2.34181
thorax 2.26265 -2.01131 -0.130439
lowerneck 3.98374 15.943 -0.65194
upperneck -6.56002 20.6616 -10.1756
head -1.69494 10.6134 -3.55377
rclavicle -1.4064e-014 -3.08116e-015
rhumerus -79.1656 23.3507 -108.233
rradius 63.0185
rwrist -16.727
rhand 33.8936 24.8653
rfingers 7.12502
rthumb 57.1692 8.42117
lclavicle -1.4064e-014 -3.08116e-015
lhumerus -75.4224 -23.8513 103.364
lradius 70.185
lwrist 25.3409
lhand 36.2502 -2.32215
lfingers 7.12502
lthumb 59.2209 12.2508
rfemur 11.1605 23.6845 28.6944
rtibia 31.8372
rfoot -52.5995 -30.7252
rtoes -5.37578
lfemur -11.8172 -3.18855 -14.6767
ltibia 48.8789
lfoot -3.67084 -8.45018
ltoes 0.765249
3385
root -5.13588 16.917 -4.50605 323.168 -74.8873 -335.198
lowerback 14.3559 -1.89053 -3.16153
upperback 9.61453 -3.36503 -2.37743
thorax 2.1525 -1.98999 -0.31312
lowerneck 3.90158 15.8725 -0.702201
upperneck -6.48909 20.5788 -10.0447
head -1.68137 10.5663 -3.49441
rclavicle 7.52897e-015 3.08116e-015
rhumerus -79.3759 23.4363 -108.569
rradius 63.6348
rwrist -17.4983
rhand 34.2498 24.9538
rfingers 7.12502
rthumb 57.4817 8.77625
lclavicle 7.52897e-015 3.08116e-015
lhumerus -75.3947 -24.3033 103.326
lradius 70.9011
lwrist 26.1625
lhand 36.9121 -2.02931
lfingers 7.12502
lthumb 59.7899 11.9697
rfemur 11.3798 24.97 29.5817
rtibia 32.0153
rfoot -54.3183 -31.1987
rtoes -4.83829
lfemur -12.6397 -2.88555 -14.3909
ltibia 49.7395
lfoot -2.51368 -8.85042
ltoes 1.12438
3386
root -5.093 16.898 -4.5142 323.783 -74.7759 -335.882
lowerback 14.6226 -1.89776 -2.85707
upperback 9.65914 -3.35577 -2.41967
thorax 2.03811 -1.97171 -0.516619
lowerneck 3.80959 15.8094 -0.749157
upperneck -6.39818 20.5084 -9.90152
head -1.65968 10.5245 -3.42928
rclavicle 1.97667e-014 2.67862e-014
rhumerus -79.5089 23.5234 -108.945
rradius 64.162
rwrist -18.3938
rhand 34.485 25.0163
rfingers 7.12502
rthumb 57.6876 9.01784
lclavicle 1.97667e-014 2.67862e-014
lhumerus -75.2959 -24.6802 103.2
lradius 71.4884
lwrist 26.8206
lhand 37.4897 -1.75839
lfingers 7.12502
lthumb 60.2837 11.7206
rfemur 11.6295 26.2581 30.5052
rtibia 32.1794
rfoot -56.0483 -31.6256
rtoes -4.31167
lfemur -13.4608 -2.5882 -14.0895
ltibia 50.593
lfoot -1.3487 -9.21618
ltoes 1.35313
3387
root -5.0522 16.885 -4.52222 324.189 -74.6061 -336.336
lowerback 14.8849 -1.90882 -2.66112
upperback 9.67424 -3.36141 -2.46008
thorax 1.90199 -1.96487 -0.655272
lowerneck 3.78029 15.7608 -0.804901
upperneck -6.32583 20.4518 -9.78158
head -1.65258 10.492 -3.3782
rclavicle 4.06266e-015 -1.50082e-014
rhumerus -79.6679 23.6079 -109.303
rradius 64.6392
rwrist -19.3026
rhand 34.6625 25.0577
rfingers 7.12502
rthumb 57.8428 9.19604
lclavicle 4.06266e-015 -1.50082e-014
lhumerus -75.1876 -24.9301 103.042
lradius 71.9724
lwrist 27.3117
lhand 38.0017 -1.61474
lfingers 7.12502
lthumb 60.719 11.3879
rfemur 11.9268 27.6112 31.3948
rtibia 32.3224
rfoot -57.8917 -32.0578
rtoes -3.74992
lfemur -14.2808 -2.37214 -13.8967
ltibia 51.4091
lfoot -0.181715 -9.50452
ltoes 1.54981
3388
root -5.0145 16.8739 -4.52898 324.253 -74.397 -336.442
lowerback 15.0936 -1.90676 -2.55601
upperback 9.73016 -3.35959 -2.53829
thorax 1.84127 -1.9596 -0.788176
lowerneck 3.67211 15.7098 -0.835985
upperneck -6.24219 20.3968 -9.67923
head -1.62336 10.4585 -3.32622
rclavicle 1.39025e-014 -3.62782e-015
rhumerus -79.7349 23.687 -109.638
rradius 65.079
rwrist -20.2093
rhand 34.801 25.1234
rfingers 7.12502
rthumb 57.9637 9.36946
lclavicle 1.39025e-014 -3.62782e-015
lhumerus -74.9857 -25.1955 102.852
lradius 72.3826
lwrist 27.7363
lhand 38.403 -1.51619
lfingers 7.12502
lthumb 61.0587 11.1025
rfemur 12.3052 29.0127 32.2213
rtibia 32.4376
rfoot -59.7936 -32.4048
rtoes -3.10689
lfemur -15.0467 -2.20676 -13.8314
ltibia 52.1579
lfoot 0.987092 -9.70186
ltoes 1.637
3389
root -4.97914 16.8667 -4.53524 324.244 -74.169 -336.451
lowerback 15.2904 -1.91165 -2.51295
upperback 9.74873 -3.37187 -2.60547
thorax 1.75145 -1.96286 -0.872274
lowerneck 3.65194 15.6698 -0.903937
upperneck -6.19488 20.3481 -9.56977
head -1.62566 10.4314 -3.27965
rclavicle 2.57985e-014 3.88127e-014
rhumerus -79.8919 23.7471 -109.975
rradius 65.4917
rwrist -20.9993
rhand 34.8782 25.1996
rfingers 7.12502
rthumb 58.031 9.50607
lclavicle 2.57985e-014 3.88127e-014
lhumerus -74.7979 -25.3826 102.708
lradius 72.6981
lwrist 28.1764
lhand 38.7832 -1.41774
lfingers 7.12502
lthumb 61.3791 10.8284
rfemur 12.6911 30.3446 32.9885
rtibia 32.5228
rfoot -61.5852 -32.7446
rtoes -2.48
lfemur -15.7897 -2.05031 -13.814
ltibia 52.8224
lfoot 2.1919 -9.8503
ltoes 1.7823
